<svg viewBox="0 0 320 150" width="320" role="img" aria-label="wall s / attempt across configs"><style>
text { fill:#52514e; font:11px system-ui,-apple-system,'Segoe UI',sans-serif; }
.tick { fill:#898781; font-variant-numeric:tabular-nums; }
.vlab { fill:#0b0b0b; font-weight:600; }
.grid { stroke:#e1e0d9; stroke-width:1; }
.axis { stroke:#c3c2b7; stroke-width:1; }
</style><rect width="100%" height="100%" fill="#fcfcfb"/><text x="46" y="14" class="vlab">wall s / attempt</text><line class="grid" x1="46" y1="120" x2="306" y2="120"/><text class="tick" x="40" y="124" text-anchor="end">0</text><line class="grid" x1="46" y1="73" x2="306" y2="73"/><text class="tick" x="40" y="77" text-anchor="end">83</text><line class="grid" x1="46" y1="26" x2="306" y2="26"/><text class="tick" x="40" y="30" text-anchor="end">166</text><text class="tick" x="46" y="142" text-anchor="middle">0</text><text class="tick" x="75" y="142" text-anchor="middle">1</text><text class="tick" x="104" y="142" text-anchor="middle">2</text><text class="tick" x="133" y="142" text-anchor="middle">3</text><text class="tick" x="162" y="142" text-anchor="middle">4</text><text class="tick" x="190" y="142" text-anchor="middle">5</text><text class="tick" x="219" y="142" text-anchor="middle">6</text><text class="tick" x="248" y="142" text-anchor="middle">7</text><text class="tick" x="277" y="142" text-anchor="middle">8</text><text class="tick" x="306" y="142" text-anchor="middle">9</text><path d="M46.0,70.3 L74.9,91.0 L103.8,95.6 L132.7,91.7 L161.6,96.4 L190.4,91.8 L219.3,91.4 L248.2,94.6 L277.1,85.3 L306.0,95.9" fill="none" stroke="#2a78d6" stroke-width="2" stroke-linejoin="round" stroke-linecap="round"/><circle cx="306.0" cy="95.9" r="4" fill="#2a78d6" stroke="#fcfcfb" stroke-width="2"><title>wall s / attempt · easy: 88, 51, 43, 50, 42, 50, 51, 45, 61, 43</title></circle><path d="M46.0,50.6 L74.9,93.5 L103.8,90.9 L132.7,90.4 L161.6,90.0 L190.4,94.4 L219.3,93.0 L248.2,95.6 L277.1,76.7 L306.0,92.1" fill="none" stroke="#1baf7a" stroke-width="2" stroke-linejoin="round" stroke-linecap="round"/><circle cx="306.0" cy="92.1" r="4" fill="#1baf7a" stroke="#fcfcfb" stroke-width="2"><title>wall s / attempt · medium: 123, 47, 51, 52, 53, 45, 48, 43, 77, 49</title></circle><path d="M46.0,26.0 L74.9,92.2 L103.8,92.3 L132.7,89.3 L161.6,90.4 L190.4,90.0 L219.3,88.2 L248.2,92.5 L277.1,56.8 L306.0,74.5" fill="none" stroke="#eda100" stroke-width="2" stroke-linejoin="round" stroke-linecap="round"/><circle cx="306.0" cy="74.5" r="4" fill="#eda100" stroke="#fcfcfb" stroke-width="2"><title>wall s / attempt · hard: 166, 49, 49, 54, 52, 53, 56, 49, 112, 81</title></circle></svg>