<svg viewBox="0 0 320 150" width="320" role="img" aria-label="cost $ / attempt across configs"><style>
text { fill:#52514e; font:11px system-ui,-apple-system,'Segoe UI',sans-serif; }
.tick { fill:#898781; font-variant-numeric:tabular-nums; }
.vlab { fill:#0b0b0b; font-weight:600; }
.grid { stroke:#e1e0d9; stroke-width:1; }
.axis { stroke:#c3c2b7; stroke-width:1; }
</style><rect width="100%" height="100%" fill="#fcfcfb"/><text x="46" y="14" class="vlab">cost $ / attempt</text><line class="grid" x1="46" y1="120" x2="306" y2="120"/><text class="tick" x="40" y="124" text-anchor="end">0.000</text><line class="grid" x1="46" y1="73" x2="306" y2="73"/><text class="tick" x="40" y="77" text-anchor="end">0.077</text><line class="grid" x1="46" y1="26" x2="306" y2="26"/><text class="tick" x="40" y="30" text-anchor="end">0.154</text><text class="tick" x="46" y="142" text-anchor="middle">0</text><text class="tick" x="75" y="142" text-anchor="middle">1</text><text class="tick" x="104" y="142" text-anchor="middle">2</text><text class="tick" x="133" y="142" text-anchor="middle">3</text><text class="tick" x="162" y="142" text-anchor="middle">4</text><text class="tick" x="190" y="142" text-anchor="middle">5</text><text class="tick" x="219" y="142" text-anchor="middle">6</text><text class="tick" x="248" y="142" text-anchor="middle">7</text><text class="tick" x="277" y="142" text-anchor="middle">8</text><text class="tick" x="306" y="142" text-anchor="middle">9</text><path d="M46.0,72.4 L74.9,89.6 L103.8,92.3 L132.7,91.0 L161.6,94.1 L190.4,91.1 L219.3,89.8 L248.2,94.4 L277.1,67.1 L306.0,84.0" fill="none" stroke="#2a78d6" stroke-width="2" stroke-linejoin="round" stroke-linecap="round"/><circle cx="306.0" cy="84.0" r="4" fill="#2a78d6" stroke="#fcfcfb" stroke-width="2"><title>cost $ / attempt · easy: 0.078, 0.050, 0.045, 0.047, 0.042, 0.047, 0.049, 0.042, 0.087, 0.059</title></circle><path d="M46.0,51.8 L74.9,82.4 L103.8,82.0 L132.7,81.5 L161.6,84.1 L190.4,82.4 L219.3,85.5 L248.2,85.1 L277.1,33.4 L306.0,51.3" fill="none" stroke="#1baf7a" stroke-width="2" stroke-linejoin="round" stroke-linecap="round"/><circle cx="306.0" cy="51.3" r="4" fill="#1baf7a" stroke="#fcfcfb" stroke-width="2"><title>cost $ / attempt · medium: 0.111, 0.062, 0.062, 0.063, 0.059, 0.061, 0.056, 0.057, 0.142, 0.112</title></circle><path d="M46.0,26.0 L74.9,82.2 L103.8,83.5 L132.7,82.6 L161.6,85.5 L190.4,78.8 L219.3,81.5 L248.2,82.1 L277.1,31.0 L306.0,41.7" fill="none" stroke="#eda100" stroke-width="2" stroke-linejoin="round" stroke-linecap="round"/><circle cx="306.0" cy="41.7" r="4" fill="#eda100" stroke="#fcfcfb" stroke-width="2"><title>cost $ / attempt · hard: 0.154, 0.062, 0.060, 0.061, 0.057, 0.067, 0.063, 0.062, 0.146, 0.128</title></circle></svg>