<svg viewBox="0 0 320 150" width="320" role="img" aria-label="wall s / attempt vs N agents"><style>
text { fill:#52514e; font:11px system-ui,-apple-system,'Segoe UI',sans-serif; }
.tick { fill:#898781; font-variant-numeric:tabular-nums; }
.vlab { fill:#0b0b0b; font-weight:600; }
.grid { stroke:#e1e0d9; stroke-width:1; }
.axis { stroke:#c3c2b7; stroke-width:1; }
</style><rect width="100%" height="100%" fill="#fcfcfb"/><text x="50" y="14" class="vlab">wall s / attempt</text><line class="grid" x1="50" y1="120" x2="306" y2="120"/><text class="tick" x="44" y="124" text-anchor="end">0</text><line class="grid" x1="50" y1="73" x2="306" y2="73"/><text class="tick" x="44" y="77" text-anchor="end">70</text><line class="grid" x1="50" y1="26" x2="306" y2="26"/><text class="tick" x="44" y="30" text-anchor="end">140</text><text class="tick" x="50" y="142" text-anchor="middle">N=1</text><text class="tick" x="135" y="142" text-anchor="middle">N=2</text><text class="tick" x="221" y="142" text-anchor="middle">N=4</text><text class="tick" x="306" y="142" text-anchor="middle">N=8</text><path d="M50.0,34.1 L135.3,26.0 L220.7,29.3 L306.0,30.4" fill="none" stroke="#4a3aa7" stroke-width="2" stroke-linejoin="round" stroke-linecap="round"/><circle cx="50.0" cy="34.1" r="4" fill="#4a3aa7" stroke="#fcfcfb" stroke-width="2"><title>baseline N=1: 128 (3/24 solved)</title></circle><circle cx="135.3" cy="26.0" r="4" fill="#4a3aa7" stroke="#fcfcfb" stroke-width="2"><title>baseline N=2: 140 (4/24 solved)</title></circle><circle cx="220.7" cy="29.3" r="4" fill="#4a3aa7" stroke="#fcfcfb" stroke-width="2"><title>baseline N=4: 135 (3/24 solved)</title></circle><circle cx="306.0" cy="30.4" r="4" fill="#4a3aa7" stroke="#fcfcfb" stroke-width="2"><title>baseline N=8: 133 (4/24 solved)</title></circle><path d="M50.0,87.8 L135.3,86.6 L220.7,86.6 L306.0,85.6" fill="none" stroke="#eb6834" stroke-width="2" stroke-linejoin="round" stroke-linecap="round"/><circle cx="50.0" cy="87.8" r="4" fill="#eb6834" stroke="#fcfcfb" stroke-width="2"><title>session_try_hints_auto N=1: 48 (11/24 solved)</title></circle><circle cx="135.3" cy="86.6" r="4" fill="#eb6834" stroke="#fcfcfb" stroke-width="2"><title>session_try_hints_auto N=2: 50 (10/24 solved)</title></circle><circle cx="220.7" cy="86.6" r="4" fill="#eb6834" stroke="#fcfcfb" stroke-width="2"><title>session_try_hints_auto N=4: 50 (9/24 solved)</title></circle><circle cx="306.0" cy="85.6" r="4" fill="#eb6834" stroke="#fcfcfb" stroke-width="2"><title>session_try_hints_auto N=8: 51 (8/24 solved)</title></circle></svg>